<svg xmlns="http://www.w3.org/2000/svg" width="106" height="23" viewBox="0 0 106 23" fill="none"><g clip-path="url(#clip0)"><path d="M84.7434 22.0851C84.3324 22.4492 83.799 22.6445 83.2501 22.6319C82.577 22.5688 82.1984 22.0325 82.1984 20.3077V12.4518C82.2814 11.5997 82.1839 10.7396 81.9121 9.92781C81.6402 9.11598 81.2003 8.37059 80.6209 7.74029C79.4706 6.68945 77.9722 6.10133 76.4142 6.08917C74.5843 5.95246 72.3548 6.41519 71.1559 7.76133C70.9561 8.00321 70.2409 8.813 70.5038 9.3178C70.5498 9.39436 70.6107 9.46084 70.683 9.51325C70.7553 9.56566 70.8375 9.60291 70.9245 9.62278C71.3136 9.7595 71.8184 9.62278 72.4179 9.02333C73.4695 7.97166 74.3004 6.53087 76.0882 6.53087C78.2757 6.53087 80.0635 7.34066 80.0635 11.3055V11.7051V15.9118C80.0635 18.909 78.0443 22.2218 75.2784 22.4742C72.8596 22.7161 70.6721 21.5382 70.5038 18.8775C70.3356 15.7225 72.9227 14.6708 74.9734 14.2712C76.4096 14.076 77.785 13.566 79.0013 12.7778V12.5359C77.9273 13.2898 76.6854 13.77 75.3836 13.9346C71.5765 14.5656 68.411 15.4806 68.5477 19.0142C68.6529 21.9378 71.7027 23.1472 74.374 23.021C78.0759 22.8107 79.727 19.3507 80.0635 17.5313V20.0869C80.0297 20.5038 80.0854 20.9231 80.2269 21.3167C80.3683 21.7103 80.5923 22.0691 80.8838 22.369C81.4113 22.8223 82.0927 23.0557 82.7873 23.021C83.5651 23.0039 84.3111 22.7093 84.8907 22.1902L84.7434 22.0851Z" fill="white"></path><path d="M16.2167 22.0851C15.8014 22.4489 15.2649 22.644 14.7128 22.6319C14.0398 22.5688 13.6612 22.0325 13.6612 20.3077V12.4518C13.7389 11.5992 13.6378 10.7398 13.3643 9.92847C13.0909 9.11719 12.6511 8.37191 12.0732 7.74029C10.9229 6.68945 9.42446 6.10133 7.86648 6.08917C6.03658 5.95246 3.81756 6.41519 2.60814 7.76133C2.40832 8.00321 1.69318 8.813 1.9561 9.3178C2.00205 9.39436 2.063 9.46084 2.13529 9.51325C2.20758 9.56566 2.28972 9.60291 2.37677 9.62278C2.76589 9.7595 3.2812 9.62278 3.87014 9.02333C4.92181 7.97166 5.76314 6.53087 7.54046 6.53087C9.72793 6.53087 11.5684 7.36169 11.5684 11.3055V11.7051V15.9118C11.5684 18.9301 9.46502 22.1797 6.73068 22.4426C4.31184 22.6845 2.12437 21.5066 1.9561 18.8459C1.78783 15.6909 4.37494 14.6392 6.43621 14.2396C7.86877 14.0429 9.2404 13.5331 10.4536 12.7462V12.5044C9.37959 13.2583 8.13768 13.7384 6.83584 13.9031C3.0288 14.5341 -0.126203 15.449 -2.79932e-06 18.9826C0.105164 21.9063 3.155 23.1367 5.82624 22.9895C9.52812 22.7792 11.1792 19.3192 11.5158 17.4998V20.0553C11.4819 20.4722 11.5376 20.8915 11.6791 21.2851C11.8206 21.6787 12.0446 22.0375 12.3361 22.3375C12.8636 22.7907 13.545 23.0241 14.2396 22.9895C15.0179 22.9752 15.7649 22.6801 16.3429 22.1587L16.2167 22.0851Z" fill="white"></path><path d="M29.6781 6.22587C28.7121 6.01674 27.7092 6.05144 26.76 6.32685C25.8107 6.60225 24.945 7.1097 24.2409 7.80338C23.3456 8.75844 22.7782 9.9742 22.6214 11.2739V6.49931H18.2149V6.79377H18.4568C20.1394 6.79377 20.476 7.13031 20.476 8.89711V20.4655C20.476 22.1481 20.1394 22.5162 18.4568 22.5162H17.7837V22.7791H26.0077C26.0077 22.695 26.0077 22.6004 26.0077 22.5162H24.6406C22.9264 22.5162 22.6214 22.1481 22.6214 20.4655V13.2615C22.5831 11.365 23.2417 9.52033 24.4723 8.07681C25.8921 6.73067 27.2697 7.26702 28.8472 8.07681C29.8989 8.55006 30.7718 8.30818 30.9506 7.66666C31.0009 7.46289 31.0009 7.24994 30.9506 7.04617C30.6561 6.47827 29.983 6.31001 29.6781 6.22587Z" fill="white"></path><path d="M43.3076 19.824C42.6346 20.6653 41.5303 22.5162 39.6058 22.5162C38.2281 22.5162 37.0187 21.8116 37.0187 18.5725V6.79378H43.8124L44.7484 6.49931H37.0187V1.24097H36.8083C36.2404 3.99634 34.5262 6.49931 32.0022 6.49931V6.79378H34.8627V18.0046C34.8627 21.5066 36.272 22.9895 39.2692 22.9895C41.4567 22.9895 42.9711 20.6337 43.4759 19.9922L43.3076 19.824Z" fill="white"></path><path d="M50.7114 22.5162C48.9867 22.5162 48.6922 22.1481 48.6922 20.4655V6.49931H43.8125V6.79378H44.4856C46.1998 6.79378 46.5048 7.13031 46.5048 8.81298V20.4655C46.5048 22.1481 46.1998 22.5162 44.4856 22.5162H43.8125V22.7791H51.3845V22.5162H50.7114ZM47.4092 3.09191C47.8192 3.09191 48.2124 2.92903 48.5024 2.63911C48.7923 2.34918 48.9552 1.95597 48.9552 1.54595C48.9497 1.13763 48.7851 0.747571 48.4963 0.45882C48.2076 0.17007 47.8175 0.00544497 47.4092 0C46.9992 0 46.606 0.162877 46.3161 0.452799C46.0261 0.742722 45.8633 1.13594 45.8633 1.54595C45.8604 1.74975 45.8985 1.95205 45.9752 2.1409C46.0519 2.32974 46.1656 2.50129 46.3097 2.64541C46.4539 2.78954 46.6254 2.90331 46.8143 2.97999C47.0031 3.05668 47.2054 3.09474 47.4092 3.09191Z" fill="white"></path><path d="M66.1816 20.15H65.845C65.7504 21.5066 65.3087 22.4111 63.8258 22.4111H54.8761L65.5821 6.89896V6.49933H53.0252V9.46504H53.3091C53.3617 7.96115 53.7929 6.94103 55.3494 6.94103H63.4262L52.7202 22.4111V22.7792H66.1816V20.15Z" fill="white"></path><path d="M99.2565 22.5162H98.5834V22.7791H105.472C105.477 22.6916 105.477 22.6038 105.472 22.5162C103.758 22.5162 103.453 22.1481 103.453 20.4655V12.62C103.453 8.51852 100.929 6.31002 97.0585 6.31002C95.7553 6.29815 94.4803 6.69011 93.4088 7.43205C92.3374 8.17399 91.5219 9.22951 91.0745 10.4536V6.49932H86.2894V6.79378H86.8468C88.561 6.79378 88.866 7.13032 88.866 8.89712V20.4655C88.866 22.1481 88.561 22.5162 86.8468 22.5162H86.2368V22.7791H93.7037V22.5162H93.0306C91.3479 22.5162 91.0535 22.1481 91.0535 20.4655V12.315C91.1033 10.8414 91.7109 9.44178 92.7535 8.3992C93.7961 7.35662 95.1958 6.74895 96.6694 6.69913C99.4668 6.69913 101.276 8.80247 101.276 12.1783V20.4655C101.276 22.1481 100.96 22.5162 99.2565 22.5162Z" fill="white"></path></g><defs><clipPath id="clip0"><rect width="105.482" height="23" fill="white"></rect></clipPath></defs></svg>