<svg xmlns="http://www.w3.org/2000/svg" width="141" height="24" viewBox="0 0 141 24" fill="none"><g clip-path="url(#clip0)"><g clip-path="url(#clip1)"><path d="M8.34518 18.5H17.6252V22.62H0.875183L10.5352 4.12H1.39518V0H18.0052L8.34518 18.5Z" fill="white"></path><path d="M28.1952 0H23.5952V22.62H28.1952V0Z" fill="white"></path><path d="M51.6152 0V22.62H46.8752L39.1552 8.54L39.0352 8.33C38.8752 8.04 38.7152 7.75 38.5652 7.46V22.62H33.9652V0H38.6652L46.4352 14.06L46.5552 14.29L47.0152 15.14V0H51.6152Z" fill="white"></path><path d="M63.6851 18.5H72.9552V22.62H56.2151L65.8651 4.12H56.7251V0H73.3351L63.6851 18.5Z" fill="white"></path><path d="M89.3452 0H85.3452L76.1852 22.62H81.1152L82.7752 18H91.9352L93.6052 22.66H98.5252L89.3452 0ZM84.0652 14.28L87.3352 5.06L90.6152 14.28H84.0652Z" fill="white"></path><path d="M115.475 18.5V22.62H102.575V0H107.175V18.5H115.475Z" fill="white"></path><path d="M131.875 0H127.875L118.695 22.62H123.615L125.255 18H134.415L136.075 22.66H141.005L131.875 0ZM126.585 14.28L129.865 5.06L133.145 14.28H126.585Z" fill="white"></path></g></g><defs><clipPath id="clip0"><rect width="139.806" height="23.1655" fill="white" transform="translate(0.875183)"></rect></clipPath><clipPath id="clip1"><rect width="141" height="23" fill="white" transform="translate(0.875183)"></rect></clipPath></defs></svg>